<svg width="18" height="18" viewBox="0 0 18 18" fill="none" xmlns="http://www.w3.org/2000/svg">
<g id="&#240;&#159;&#166;&#134; icon &#34;instagram&#34;">
<path id="Vector" d="M8.99998 12.5556C10.9636 12.5556 12.5555 10.9637 12.5555 9.00001C12.5555 7.03633 10.9636 5.44446 8.99998 5.44446C7.0363 5.44446 5.44442 7.03633 5.44442 9.00001C5.44442 10.9637 7.0363 12.5556 8.99998 12.5556Z" stroke="black" stroke-width="2" stroke-linecap="round" stroke-linejoin="round"/>
<path id="Vector_2" d="M1 12.5556V5.44444C1 2.98985 2.98985 1 5.44444 1H12.5556C15.0101 1 17 2.98985 17 5.44444V12.5556C17 15.0101 15.0101 17 12.5556 17H5.44444C2.98985 17 1 15.0101 1 12.5556Z" stroke="black" stroke-width="2"/>
<path id="Vector_3" d="M13.8889 4.11937L13.8972 4.11011" stroke="black" stroke-width="2" stroke-linecap="round" stroke-linejoin="round"/>
</g>
</svg>
